<?xml version="1.0" encoding="UTF-8"?>
<svg width="27px" height="26px" viewBox="0 0 27 26" version="1.1" xmlns="http://www.w3.org/2000/svg" xmlns:xlink="http://www.w3.org/1999/xlink">
    <!-- Generator: sketchtool 53.1 (72631) - https://sketchapp.com -->
    <title>304F5B5B-6DED-4824-82F1-FCB8638C1E6C-601-00002861072A91C1_icon</title>
    <desc>Created with sketchtool.</desc>
    <g id="CMS" stroke="none" stroke-width="1" fill="none" fill-rule="evenodd">
        <g id="cms_blog_article_v01" transform="translate(-1550.000000, -61.000000)" stroke="#545D5F" stroke-width="1.4">
            <g id="Header">
                <g id="Middle" transform="translate(16.000000, 28.000000)">
                    <path d="M1554.36667,58 C1555.32396,58 1556.1,57.2185334 1556.1,56.2545455 C1556.1,55.2905575 1555.32396,54.5090909 1554.36667,54.5090909 C1553.40937,54.5090909 1552.63333,55.2905575 1552.63333,56.2545455 C1552.63333,57.2185334 1553.40937,58 1554.36667,58 Z M1534,34 L1538.33333,34 L1542.66667,51.4545455 L1556.53333,51.4545455 L1560,40.9818182 L1540.06667,40.9818182 M1543.1,58 C1544.05729,58 1544.83333,57.2185334 1544.83333,56.2545455 C1544.83333,55.2905575 1544.05729,54.5090909 1543.1,54.5090909 C1542.14271,54.5090909 1541.36667,55.2905575 1541.36667,56.2545455 C1541.36667,57.2185334 1542.14271,58 1543.1,58 Z" id="cart_icon"></path>
                </g>
            </g>
        </g>
    </g>
</svg>